    The Great Challenge(Yamakasi vs. Ong Bak) 2004 DVDRip Xvid LKRG


RIPPER                           : fasamoo
Format                           : AVI
Format/Info                      : Audio Video Interleave
File size                        : 700 MiB
Duration                         : 1h 34mn
Overall bit rate                 : 1 037 Kbps
Writing application              : VirtualDubMod 1.5.4.1 (build 2178/release)
Writing library                  : VirtualDubMod build 2178/release
Language                         : French
Subtitles                        : English(*.srt)
                                   English, Thai, Malay, Chinese                                   (Mandarin & Cantonese)(*.idx,*.sub)
Genre                            : Action | Adventure

Video
ID                               : 0
Format                           : MPEG-4 Visual
Format profile                   : Advanced Simple@L5
Format settings, BVOP            : Yes
Format settings, QPel            : No
Format settings, GMC             : No warppoints
Format settings, Matrix          : Custom
Codec ID                         : XVID
Codec ID/Hint                    : XviD
Duration                         : 1h 34mn
Bit rate                         : 906 Kbps
Width                            : 512 pixels
Height                           : 288 pixels
Display aspect ratio             : 16:9
Frame rate                       : 23.976 fps
Color space                      : YUV
Chroma subsampling               : 4:2:0
Bit depth                        : 8 bits
Scan type                        : Progressive
Bits/(Pixel*Frame)               : 0.256
Stream size                      : 612 MiB (87%)
Writing library                  : XviD 1.2.1 (UTC 2008-12-04)

Audio
ID                               : 1
Format                           : MPEG Audio
Format version                   : Version 1
Format profile                   : Layer 3
Mode                             : Joint stereo
Mode extension                   : MS Stereo
Codec ID                         : 55
Codec ID/Hint                    : MP3
Duration                         : 1h 34mn
Bit rate mode                    : Variable
Bit rate                         : 118 Kbps
Nominal bit rate                 : 128 Kbps
Channel(s)                       : 2 channels
Sampling rate                    : 48.0 KHz
Stream size                      : 79.9 MiB (11%)
Alignment                        : Aligned on interleaves
Interleave, duration             : 24 ms (0.58 video frame)
Interleave, preload duration     : 155 ms
Writing library                  : LAME3.98r
Encoding settings                : -m j -V 4 -q 2 -lowpass 17 --abr 128

                                 PLOT

A multicultural band of acrobatic do-gooders take on gangsters of three great nations in this action-packed sequel to the French box-office smash Yamakasi. The Yamakasi are a team of crime fighters who can scale buildings and urban towers with the ease of a fly walking up the wall; after leaving their home base in Paris to set up operations in England, the men decide to set up a satellite facility in Thailand to teach their techniques to the local youth in the name of self-defense. But when major crime waves hit both London and Bangkok, the Yamakasi discover they may not be welcome everywhere they go, and when an impromptu exhibition of their skills at a building site angers a consortium of Asian and European criminals, they must face off against the British Mafia, the Japanese yakusa, and the Chinese Triads all at once. Julien Seri, who directed Yamakasi, returned to do the honors once again for this sequel.


  







                                 IMBD
                     
                    http://www.imdb.com/title/tt0345235/
 
http://leetleech.org/images/02799879258750491797.png 
http://leetleech.org/images/20381356877147183567.png 
http://leetleech.org/images/16362222621034364081.png 
http://leetleech.org/images/26014390816713386771.png 
http://leetleech.org/images/51192502447678759831.png 
http://leetleech.org/images/29138001895032982201.png 
http://leetleech.org/images/67096940749927707734.png

